# This file uses centimeters as units for non-parametric coordinates.

mtllib Floor_Curve_HP.mtl
g default
v 1.500000 0.000000 -1.500000
v 2.250000 0.000000 -1.500000
v 2.250000 0.000000 -2.250000
v 1.500000 0.000000 -2.250000
v 0.750000 0.000000 -0.750000
v 1.500000 0.000000 -0.750000
v 0.750000 0.000000 -1.500000
v 0.750000 0.000000 0.000000
v 1.500000 0.000000 0.000000
v 3.000000 0.000000 -1.500000
v 3.000000 0.000000 -2.250000
v 2.250000 0.000000 -0.750000
v 2.250000 0.000000 0.000000
v 3.000000 0.000000 -0.750000
v 3.000000 0.000000 0.000000
v 0.000000 0.000000 0.000000
v 0.071288 0.000000 -0.750000
v 0.044591 0.000000 -0.627007
v 0.028234 0.000000 -0.492146
v 0.006831 0.000000 -0.316082
v 0.003872 0.000000 -0.179457
v 0.000000 0.000000 -0.001052
v 3.000000 0.000000 -3.000000
v 2.883965 0.000000 -3.000000
v 2.860489 0.000000 -2.999068
v 2.677948 0.000000 -2.991862
v 2.542612 0.000000 -2.975150
v 2.365534 0.000000 -2.953402
v 2.250000 0.000000 -2.928540
v 0.888848 0.000000 -2.250000
v 0.816562 0.000000 -2.185070
v 0.750000 0.000000 -2.110150
v 1.500000 0.000000 -2.676583
v 1.401611 0.000000 -2.621030
v 1.259235 0.000000 -2.540997
v 1.158862 0.000000 -2.468871
v 1.027532 0.000000 -2.374892
v 0.936141 0.000000 -2.292479
v 0.327006 0.000000 -1.500000
v 0.734639 0.000000 -2.092860
v 0.627448 0.000000 -1.972655
v 0.555446 0.000000 -1.871231
v 0.461236 0.000000 -1.738983
v 0.399583 0.000000 -1.629025
v 2.235501 0.000000 -2.925420
v 2.065361 0.000000 -2.888998
v 1.941607 0.000000 -2.849737
v 1.779683 0.000000 -2.798619
v 1.663042 0.000000 -2.748170
v 1.510425 0.000000 -2.682468
v 0.318915 0.000000 -1.485616
v 0.268025 0.000000 -1.367916
v 0.201438 0.000000 -1.214372
v 0.161704 0.000000 -1.089847
v 0.109714 0.000000 -0.927359
v 0.081503 0.000000 -0.797065
vt 0.500000 0.500000
vt 0.750000 0.500000
vt 0.750000 0.750000
vt 0.500000 0.750000
vt 0.250000 0.250000
vt 0.500000 0.250000
vt 0.250000 0.500000
vt 0.250000 0.000000
vt 0.500000 0.000000
vt 1.000000 0.500000
vt 1.000000 0.750000
vt 0.750000 0.250000
vt 0.750000 0.000000
vt 1.000000 0.250000
vt 1.000000 0.000000
vt 0.000000 0.000000
vt 0.023763 0.250000
vt 0.014864 0.209002
vt 0.009411 0.164048
vt 0.002277 0.105361
vt 0.001291 0.059819
vt 0.000000 0.000351
vt 1.000000 1.000000
vt 0.961322 1.000000
vt 0.953496 0.999689
vt 0.892649 0.997287
vt 0.847537 0.991717
vt 0.788511 0.984467
vt 0.750000 0.976180
vt 0.296283 0.750000
vt 0.272187 0.728357
vt 0.250000 0.703383
vt 0.500000 0.892194
vt 0.467204 0.873677
vt 0.419745 0.846999
vt 0.386288 0.822957
vt 0.342511 0.791631
vt 0.312047 0.764160
vt 0.109002 0.500000
vt 0.244880 0.697620
vt 0.209149 0.657552
vt 0.185149 0.623744
vt 0.153745 0.579661
vt 0.133194 0.543008
vt 0.745167 0.975140
vt 0.688454 0.962999
vt 0.647202 0.949912
vt 0.593228 0.932873
vt 0.554347 0.916057
vt 0.503475 0.894156
vt 0.106305 0.495205
vt 0.089342 0.455972
vt 0.067146 0.404791
vt 0.053901 0.363282
vt 0.036571 0.309120
vt 0.027168 0.265688
vn 0.000000 1.000000 0.000000
vn 0.000000 1.000000 0.000000
vn 0.000000 1.000000 0.000000
vn 0.000000 1.000000 0.000000
vn 0.000000 1.000000 0.000000
vn 0.000000 1.000000 0.000000
vn 0.000000 1.000000 0.000000
vn 0.000000 1.000000 0.000000
vn 0.000000 1.000000 0.000000
vn 0.000000 1.000000 0.000000
vn 0.000000 1.000000 0.000000
vn 0.000000 1.000000 0.000000
vn 0.000000 1.000000 0.000000
vn 0.000000 1.000000 0.000000
vn 0.000000 1.000000 0.000000
vn 0.000000 1.000000 0.000000
vn 0.000000 1.000000 0.000000
vn 0.000000 1.000000 0.000000
vn 0.000000 1.000000 0.000000
vn 0.000000 1.000000 0.000000
vn 0.000000 1.000000 0.000000
vn 0.000000 1.000000 0.000000
vn 0.000000 1.000000 0.000000
vn 0.000000 1.000000 0.000000
vn 0.000000 1.000000 0.000000
vn 0.000000 1.000000 0.000000
vn 0.000000 1.000000 0.000000
vn 0.000000 1.000000 0.000000
vn 0.000000 1.000000 0.000000
vn 0.000000 1.000000 0.000000
vn 0.000000 1.000000 0.000000
vn 0.000000 1.000000 0.000000
vn 0.000000 1.000000 0.000000
vn 0.000000 1.000000 0.000000
vn 0.000000 1.000000 0.000000
vn 0.000000 1.000000 0.000000
vn 0.000000 1.000000 0.000000
vn 0.000000 1.000000 0.000000
vn 0.000000 1.000000 0.000000
vn 0.000000 1.000000 0.000000
vn 0.000000 1.000000 0.000000
vn 0.000000 1.000000 0.000000
vn 0.000000 1.000000 0.000000
vn 0.000000 1.000000 0.000000
vn 0.000000 1.000000 0.000000
vn 0.000000 1.000000 0.000000
vn 0.000000 1.000000 0.000000
vn 0.000000 1.000000 0.000000
vn 0.000000 1.000000 0.000000
vn 0.000000 1.000000 0.000000
vn 0.000000 1.000000 0.000000
vn 0.000000 1.000000 0.000000
vn 0.000000 1.000000 0.000000
vn 0.000000 1.000000 0.000000
vn 0.000000 1.000000 0.000000
vn 0.000000 1.000000 0.000000
s 1
g FloorBend
usemtl initialShadingGroup
f 1/1/1 2/2/2 3/3/3 4/4/4
f 5/5/5 6/6/6 1/1/1 7/7/7
f 8/8/8 9/9/9 6/6/6 5/5/5
f 2/2/2 10/10/10 11/11/11 3/3/3
f 6/6/6 12/12/12 2/2/2 1/1/1
f 9/9/9 13/13/13 12/12/12 6/6/6
f 12/12/12 14/14/14 10/10/10 2/2/2
f 13/13/13 15/15/15 14/14/14 12/12/12
f 16/16/16 8/8/8 5/5/5 17/17/17 18/18/18 19/19/19 20/20/20 21/21/21 22/22/22
f 3/3/3 11/11/11 23/23/23 24/24/24 25/25/25 26/26/26 27/27/27 28/28/28 29/29/29
f 7/7/7 1/1/1 4/4/4 30/30/30 31/31/31 32/32/32
f 30/30/30 4/4/4 33/33/33 34/34/34 35/35/35 36/36/36 37/37/37 38/38/38
f 39/39/39 7/7/7 32/32/32 40/40/40 41/41/41 42/42/42 43/43/43 44/44/44
f 4/4/4 3/3/3 29/29/29 45/45/45 46/46/46 47/47/47 48/48/48 49/49/49 50/50/50 33/33/33
f 17/17/17 5/5/5 7/7/7 39/39/39 51/51/51 52/52/52 53/53/53 54/54/54 55/55/55 56/56/56
