# This file uses centimeters as units for non-parametric coordinates.

mtllib Outside_Corner_HP.mtl
g default
v -0.991736 0.008264 -0.028216
v -0.971784 0.000000 -0.028216
v -0.971785 0.008264 -0.008264
v -0.971784 0.028216 0.000000
v -0.991736 0.028217 -0.008264
v -1.000000 0.028216 -0.028216
v -0.500003 0.000000 -0.028216
v -0.480051 0.000000 -0.028216
v -0.480050 0.008264 -0.008264
v -0.480048 0.028216 0.000000
v -0.500000 0.028216 0.000000
v -0.519952 0.028216 0.000000
v -0.519953 0.008264 -0.008264
v -0.519955 0.000000 -0.028216
v -0.008264 0.008264 -0.028205
v 0.000000 0.028216 -0.028216
v -0.008264 0.028218 -0.008264
v -0.028216 0.028216 0.000000
v -0.028234 0.008264 -0.008264
v -0.028216 0.000000 -0.028216
v -0.991736 0.991736 -0.028219
v -1.000000 0.971784 -0.028216
v -0.991736 0.971782 -0.008264
v -0.971784 0.971784 0.000000
v -0.971784 0.991736 -0.008264
v -0.971784 1.000000 -0.028216
v -0.501818 0.995905 -0.027950
v -0.521605 1.000000 -0.028001
v -0.520785 0.991738 -0.008193
v -0.519967 0.971762 0.000000
v -0.499350 0.961709 0.000000
v -0.479808 0.936630 0.000000
v -0.482851 0.970378 -0.008083
v -0.485322 0.984294 -0.027921
v -0.003907 0.464326 -0.029044
v -0.015081 0.481979 -0.029025
v -0.021074 0.474606 -0.008089
v -0.026929 0.455231 0.000000
v -0.009416 0.445081 -0.008089
v 0.000000 0.443802 -0.029025
v -0.963624 0.991903 -3.991655
v -0.972352 0.972352 -4.000000
v -0.991903 0.972639 -3.992069
v -1.000000 0.972920 -3.972920
v -0.991729 0.992073 -3.963793
v -0.971258 1.000000 -3.942230
v -0.962921 1.000000 -3.962755
v -0.942799 1.000000 -3.971258
v -0.476670 0.995934 -3.501964
v -0.493918 1.000000 -3.521434
v -0.514425 1.000000 -3.512650
v -0.522913 1.000000 -3.491451
v -0.504495 0.995943 -3.473997
v -0.488039 0.984170 -3.458566
v -0.480309 0.984144 -3.477134
v -0.461620 0.984118 -3.484829
v 0.023534 0.464720 -3.004102
v 0.011982 0.482506 -3.015564
v -0.007740 0.482636 -3.007414
v -0.015905 0.482760 -2.987731
v -0.004237 0.464891 -2.976341
v 0.000000 0.444823 -2.972335
v 0.008104 0.444833 -2.991897
v 0.027667 0.444835 -3.000000
v -0.963538 0.008096 -3.991674
v -0.942571 0.000000 -3.971258
v -0.962481 0.000000 -3.962514
v -0.970732 0.000000 -3.941408
v -0.991568 0.008093 -3.963146
v -1.000000 0.027648 -3.972352
v -0.991902 0.027647 -3.991902
v -0.972352 0.027648 -4.000000
v -0.472087 0.000000 -3.499687
v -0.452118 0.000000 -3.479736
v -0.472096 0.000000 -3.471481
v -0.480370 0.000000 -3.451555
v -0.500324 0.000000 -3.471491
v -0.520278 0.000000 -3.491426
v -0.512013 0.000000 -3.511373
v -0.492055 0.000000 -3.519637
v 0.019801 0.008181 -3.008393
v 0.027933 0.027933 -3.000000
v 0.008181 0.027788 -2.991903
v 0.000000 0.027647 -2.972353
v -0.008417 0.008096 -2.980373
v -0.028492 0.000000 -2.999982
v -0.020153 0.000000 -3.020139
v -0.000018 0.000000 -3.028487
v 2.991736 0.971785 -3.991736
v 2.971784 0.971784 -4.000000
v 2.971782 0.991736 -3.991736
v 2.971784 1.000000 -3.971784
v 2.991736 0.991736 -3.971784
v 3.000000 0.971784 -3.971784
v 3.000000 0.961615 -3.499396
v 3.000000 0.971614 -3.520072
v 2.991775 0.991694 -3.520869
v 2.971892 1.000000 -3.521662
v 2.971997 0.995905 -3.501813
v 2.972088 0.984294 -3.485295
v 2.991919 0.970382 -3.482844
v 3.000000 0.936643 -3.479807
v 2.992051 0.445258 -3.009431
v 3.000000 0.455231 -3.026929
v 2.992051 0.474467 -3.020964
v 2.971379 0.481754 -3.014871
v 2.971369 0.464347 -3.003852
v 2.971379 0.444109 -3.000000
v 2.971784 0.008264 -3.991736
v 2.971784 0.028216 -4.000000
v 2.991736 0.028217 -3.991736
v 3.000000 0.028216 -3.971784
v 2.991736 0.008264 -3.971784
v 2.971784 0.000000 -3.971784
v 2.971784 0.000000 -3.499997
v 2.971784 0.000000 -3.519949
v 2.991736 0.008264 -3.519951
v 3.000000 0.028216 -3.519952
v 3.000000 0.028216 -3.500000
v 3.000000 0.028216 -3.480048
v 2.991736 0.008264 -3.480049
v 2.971784 0.000000 -3.480045
v 2.971789 0.008264 -3.008264
v 2.971784 0.000000 -3.028216
v 2.991736 0.008264 -3.028234
v 3.000000 0.028216 -3.028216
v 2.991736 0.028217 -3.008264
v 2.971784 0.028216 -3.000000
v -0.988069 0.011932 -0.011931
v -0.500003 0.008264 -0.008264
v -0.011923 0.011933 -0.011931
v -0.988069 0.988068 -0.011932
v -0.500628 0.985945 -0.008159
v -0.009510 0.462112 -0.011835
v -0.983466 0.991988 -3.983480
v -0.496260 0.995935 -3.493706
v 0.003901 0.464795 -2.995966
v -0.983318 0.008096 -3.983309
v -0.492054 0.000000 -3.491427
v -0.000137 0.008139 -3.000177
v 2.988068 0.988069 -3.988069
v 2.991822 0.985917 -3.500653
v 2.988361 0.462125 -3.009476
v 2.988069 0.011932 -3.988069
v 2.991736 0.008264 -3.500001
v 2.988067 0.011933 -3.011923
vt 0.291853 0.041260
vt 0.729358 0.049146
vt 0.227946 0.041260
vt 0.222302 0.041830
vt 0.834489 0.049147
vt 0.158394 0.041830
vt 0.150412 0.041830
vt 0.729358 0.250865
vt 0.825954 0.250860
vt 0.834541 0.243351
vt 0.931374 0.140460
vt 0.091632 0.041944
vt 0.299755 0.459228
vt 0.434430 0.488124
vt 0.557030 0.509215
vt 0.651468 0.549802
vt 0.857060 0.688786
vt 0.969051 0.639842
vt 0.091487 0.458248
vt 0.150493 0.458251
vt 0.299119 0.488124
vt 0.227948 0.459166
vt 0.291045 0.488239
vt 0.226400 0.488183
vt 0.158431 0.458708
vt 0.220684 0.488620
vt 0.156011 0.488653
vt 0.299201 0.911815
vt 0.564766 0.105609
vt 0.662530 0.111166
vt 0.727292 0.311300
vt 0.830046 0.311481
vt 0.088318 0.910747
vt 0.147887 0.910805
vt 0.226401 0.911382
vt 0.943263 0.756604
vt 0.853813 0.756604
vt 0.155970 0.910805
vt 0.845919 0.756591
vt 0.756593 0.756585
vt 0.825957 0.049146
vt 0.931099 0.049147
vt 0.556919 0.861620
vt 0.651744 0.861639
vt 0.863525 0.317983
vt 0.974829 0.320052
vt 0.291702 0.459054
vt 0.222304 0.458742
vt 0.299835 0.040832
vt 0.433294 0.040832
vt 0.433455 0.459289
vt 0.555701 0.429570
vt 0.654453 0.397984
vt 0.725675 0.687126
vt 0.828413 0.635392
vt 0.943263 0.943524
vt 0.853837 0.943490
vt 0.845871 0.936550
vt 0.756338 0.840897
vt 0.291118 0.911382
vt 0.220686 0.910805
vt 0.147927 0.489155
vt 0.088214 0.489117
vt 0.434348 0.911815
vt 0.295841 0.041042
vt 0.727063 0.043114
vt 0.293372 0.037839
vt 0.298317 0.037839
vt 0.723326 0.046851
vt 0.225128 0.041544
vt 0.834586 0.043114
vt 0.222238 0.037839
vt 0.830223 0.049120
vt 0.228010 0.037839
vt 0.825861 0.043114
vt 0.154409 0.041819
vt 0.937132 0.046885
vt 0.151909 0.037839
vt 0.156879 0.037839
vt 0.933389 0.043114
vt 0.437285 0.039664
vt 0.550976 0.862611
vt 0.723326 0.253160
vt 0.434813 0.037839
vt 0.554656 0.864160
vt 0.727061 0.256897
vt 0.656290 0.862157
vt 0.860058 0.317309
vt 0.825639 0.256897
vt 0.651778 0.864160
vt 0.830351 0.248789
vt 0.863993 0.314972
vt 0.833739 0.253143
vt 0.978419 0.318957
vt 0.088510 0.040429
vt 0.934539 0.145505
vt 0.975582 0.316927
vt 0.091056 0.037839
vt 0.937132 0.138887
vt 0.438390 0.487474
vt 0.549375 0.432159
vt 0.434032 0.462161
vt 0.435095 0.485154
vt 0.550976 0.505949
vt 0.437285 0.459882
vt 0.554126 0.432419
vt 0.555553 0.505983
vt 0.659205 0.397236
vt 0.722420 0.689314
vt 0.651652 0.547332
vt 0.654942 0.400342
vt 0.853515 0.690854
vt 0.655673 0.550990
vt 0.725609 0.690042
vt 0.856962 0.691651
vt 0.831817 0.634371
vt 0.085202 0.488211
vt 0.969509 0.642655
vt 0.828814 0.638210
vt 0.088510 0.459143
vt 0.972813 0.638927
vt 0.088214 0.485154
vt 0.091485 0.462161
vt 0.295159 0.487551
vt 0.292743 0.462161
vt 0.292019 0.485154
vt 0.295828 0.459770
vt 0.298486 0.485154
vt 0.299130 0.462161
vt 0.223546 0.488397
vt 0.222258 0.462161
vt 0.220642 0.485154
vt 0.225139 0.458959
vt 0.226446 0.485154
vt 0.227990 0.462161
vt 0.151952 0.489714
vt 0.151130 0.462161
vt 0.148614 0.485154
vt 0.154440 0.457695
vt 0.154954 0.485154
vt 0.157391 0.462161
vt 0.435886 0.914846
vt 0.948849 0.945651
vt 0.558663 0.104349
vt 0.438390 0.912998
vt 0.945390 0.949114
vt 0.562499 0.103141
vt 0.849757 0.941576
vt 0.662632 0.108842
vt 0.854119 0.949114
vt 0.724084 0.310682
vt 0.667249 0.110953
vt 0.846612 0.945623
vt 0.727686 0.308245
vt 0.751014 0.839469
vt 0.087754 0.914846
vt 0.830685 0.308349
vt 0.753389 0.845536
vt 0.085202 0.912252
vt 0.833299 0.310334
vt 0.295163 0.911605
vt 0.948849 0.754477
vt 0.297663 0.914846
vt 0.292655 0.914846
vt 0.945389 0.751014
vt 0.223538 0.911093
vt 0.853903 0.751014
vt 0.226466 0.914846
vt 0.849866 0.756572
vt 0.220621 0.914846
vt 0.845829 0.751014
vt 0.151926 0.910811
vt 0.754475 0.751014
vt 0.154436 0.914846
vt 0.149402 0.914846
vt 0.751014 0.754496
vt 0.295844 0.037839
vt 0.723326 0.043114
vt 0.830223 0.043114
vt 0.225124 0.037839
vt 0.154403 0.037839
vt 0.937132 0.043114
vt 0.437285 0.037839
vt 0.723326 0.256897
vt 0.550976 0.864160
vt 0.830223 0.256897
vt 0.860101 0.314904
vt 0.656294 0.864160
vt 0.978453 0.316977
vt 0.937132 0.142736
vt 0.088510 0.037839
vt 0.437285 0.462161
vt 0.550976 0.504014
vt 0.549324 0.433947
vt 0.438390 0.485154
vt 0.655669 0.549061
vt 0.853474 0.693169
vt 0.722410 0.691648
vt 0.659156 0.399001
vt 0.972773 0.641234
vt 0.088510 0.462161
vt 0.085202 0.485154
vt 0.831807 0.636707
vt 0.295844 0.462161
vt 0.295159 0.485154
vt 0.225124 0.462161
vt 0.223544 0.485154
vt 0.154403 0.462161
vt 0.151928 0.485154
vt 0.438390 0.914846
vt 0.558704 0.102925
vt 0.948849 0.949114
vt 0.667301 0.109107
vt 0.724094 0.308242
vt 0.849863 0.949114
vt 0.751014 0.842987
vt 0.833308 0.308352
vt 0.085202 0.914846
vt 0.295159 0.914846
vt 0.948849 0.751014
vt 0.849863 0.751014
vt 0.223544 0.914846
vt 0.151928 0.914846
vt 0.751014 0.751014
vn -0.018369 -0.999829 0.002189
vn -0.372089 -0.928196 0.001236
vn -0.370355 -0.928888 -0.001916
vn -0.049449 -0.998777 -0.000055
vn -0.921195 -0.389099 0.001316
vn -0.999961 -0.008631 0.002069
vn -0.999977 -0.006477 -0.002060
vn -0.920901 -0.389794 -0.001259
vn -0.017393 -0.008453 0.999813
vn -0.010936 -0.381439 0.924329
vn -0.000000 -0.382683 0.923880
vn -0.000000 -0.008573 0.999963
vn -0.010936 -0.924329 0.381440
vn 0.000000 -0.999997 0.002238
vn 0.000000 -0.923880 0.382683
vn -0.924112 -0.005324 0.382084
vn -0.924112 0.005325 0.382084
vn -0.999961 0.008549 0.002070
vn -0.382084 -0.005324 0.924112
vn -0.017394 0.008410 0.999813
vn -0.382085 0.005325 0.924112
vn 0.000000 -0.999997 0.002560
vn 0.000000 -0.999997 0.002386
vn 0.000000 -1.000000 0.000000
vn 0.000000 -1.000000 0.000000
vn 0.000000 -1.000000 0.000000
vn -0.000000 -0.011823 0.999930
vn -0.000000 -0.382683 0.923880
vn 0.010925 -0.381442 0.924328
vn 0.011096 -0.012006 0.999866
vn 0.000000 -0.923879 0.382684
vn 0.016086 -0.999867 0.002537
vn 0.010921 -0.924326 0.381446
vn -0.000000 -0.008672 0.999962
vn 0.009061 0.010611 0.999903
vn 0.000183 0.008547 0.999963
vn 0.031940 0.029892 0.999043
vn 0.999813 -0.019113 0.002936
vn 0.921324 -0.388792 0.001759
vn 0.920666 -0.390335 0.003665
vn 0.999725 -0.023307 0.002700
vn 0.378180 -0.925731 0.001715
vn 0.005920 -0.999983 0.000037
vn 0.377875 -0.925857 0.000545
vn 0.397958 -0.012600 0.917317
vn 0.402437 0.004242 0.915438
vn 0.011223 0.005564 0.999922
vn 0.918589 -0.009944 0.395088
vn 0.999952 0.009292 0.003036
vn 0.918308 0.006645 0.395811
vn -0.921125 0.389266 0.001384
vn -0.920829 0.389964 -0.001205
vn -0.999977 0.006396 -0.002045
vn -0.371730 0.928340 0.001299
vn -0.018258 0.999831 0.002194
vn -0.049452 0.998776 -0.000050
vn -0.369960 0.929046 -0.001898
vn -0.011119 0.923870 0.382544
vn 0.010598 0.922858 0.384994
vn 0.008197 0.999964 0.002293
vn -0.011012 0.379879 0.924971
vn 0.004977 0.380020 0.924965
vn 0.405218 0.914217 0.002210
vn 0.321547 0.946893 0.000781
vn 0.002955 0.999996 0.000015
vn 0.724945 0.688805 0.001503
vn 0.718401 0.695624 0.002916
vn 0.672693 0.630789 0.386767
vn 0.676503 0.626961 0.386347
vn 0.732527 0.680734 0.002387
vn 0.285674 0.266965 0.920391
vn 0.286813 0.264613 0.920716
vn 0.926132 0.377194 0.002213
vn 0.911125 0.412125 0.002167
vn 0.730348 0.683075 0.000754
vn 0.999942 0.010434 0.002727
vn -0.002055 0.006543 -0.999977
vn -0.001243 0.388102 -0.921615
vn 0.001327 0.387423 -0.921901
vn 0.002070 0.008590 -0.999961
vn -0.001851 0.927430 -0.373992
vn -0.000053 0.998780 -0.049388
vn 0.002195 0.999828 -0.018417
vn 0.001276 0.926758 -0.375658
vn -0.922486 -0.000151 -0.386031
vn -0.922475 -0.010566 -0.385913
vn -0.379166 0.010199 -0.925273
vn -0.002040 -0.006519 -0.999977
vn -0.379386 -0.010275 -0.925182
vn -0.013309 0.999821 -0.013436
vn 0.002618 0.999993 0.002623
vn 0.000017 0.999995 0.003071
vn 0.000986 0.948233 0.317573
vn 0.002474 0.917601 0.397495
vn 0.002293 0.999964 0.008195
vn 0.003365 0.695154 0.718853
vn 0.001878 0.688014 0.725695
vn 0.422864 0.803607 0.418809
vn 0.428184 0.796729 0.426475
vn 0.001122 0.681996 0.731355
vn 0.002205 0.410532 0.911844
vn 0.002222 0.374827 0.927092
vn 0.002745 0.679640 0.733541
vn 0.002714 0.010245 0.999944
vn 0.003035 0.009089 0.999954
vn 0.381068 0.013237 0.924452
vn 0.380917 -0.028110 0.924182
vn 0.002703 -0.023270 0.999726
vn 0.923137 0.013327 0.384241
vn 0.922838 -0.027700 0.384190
vn -0.000056 -0.998784 -0.049292
vn -0.001933 -0.927529 -0.373747
vn 0.001276 -0.926829 -0.375482
vn 0.002189 -0.999829 -0.018355
vn -0.001284 -0.387718 -0.921777
vn 0.002070 -0.008580 -0.999961
vn 0.001330 -0.387026 -0.922068
vn -0.014117 -0.999810 -0.013486
vn 0.000000 -1.000000 0.000000
vn 0.000000 -1.000000 0.000000
vn 0.000000 -1.000000 0.000000
vn 0.000000 -1.000000 0.000000
vn 0.002386 -0.999997 -0.000000
vn 0.002562 -0.999997 0.000000
vn 0.002234 -0.999997 0.000000
vn 0.000000 -1.000000 0.000000
vn 0.005335 -0.999972 0.005319
vn 0.000038 -0.999982 0.005921
vn 0.003675 -0.388210 0.921564
vn 0.001731 -0.386668 0.922217
vn 0.002935 -0.019070 0.999814
vn 0.000535 -0.925227 0.379413
vn 0.002538 -0.999866 0.016175
vn 0.001701 -0.925103 0.379713
vn 0.382080 0.005325 -0.924114
vn 0.382081 -0.005324 -0.924113
vn 0.924113 0.005325 -0.382081
vn 0.999813 0.008428 -0.017399
vn 0.999813 -0.008454 -0.017396
vn 0.924113 -0.005324 -0.382082
vn 0.925057 0.379673 -0.010876
vn 0.925059 0.379790 0.005068
vn 0.999963 0.008565 0.000185
vn 0.382773 0.923777 -0.010997
vn 0.385258 0.922748 0.010638
vn 0.999903 0.010642 0.009006
vn 0.999963 -0.008661 -0.000000
vn 0.999963 -0.008575 0.000000
vn 0.999059 0.029641 0.031656
vn 0.999930 -0.011821 0.000000
vn 0.921523 0.265318 0.283551
vn 0.921933 0.262740 0.284616
vn 0.999922 0.005538 0.011170
vn 0.389488 0.630125 0.671745
vn 0.389152 0.626316 0.675491
vn 0.916704 0.004020 0.399547
vn 0.918475 -0.012762 0.395272
vn 0.999867 -0.012010 0.011005
vn 0.398394 0.006243 0.917193
vn 0.397455 -0.010234 0.917564
vn 0.381442 -0.924328 -0.010936
vn 0.382685 -0.923879 0.000000
vn 0.924329 -0.381439 -0.010936
vn 0.923880 -0.382681 0.000000
vn 0.382686 -0.923879 0.000000
vn 0.381447 -0.924326 0.010923
vn 0.923877 -0.382689 0.000000
vn 0.924325 -0.381449 0.010927
vn -0.887923 -0.325258 0.325269
vn -0.325286 -0.887916 0.325261
vn -0.325288 -0.325249 0.887919
vn 0.000000 -0.923880 0.382683
vn -0.000000 -0.382684 0.923880
vn 0.325001 -0.887945 0.325466
vn 0.888044 -0.324996 0.325200
vn 0.325079 -0.325339 0.887963
vn -0.325319 0.887903 0.325264
vn -0.887912 0.325288 0.325268
vn -0.325316 0.325279 0.887898
vn 0.437104 0.807047 0.397007
vn 0.191947 0.326338 0.925559
vn 0.862424 0.340615 0.374440
vn 0.496845 0.196190 0.845372
vn -0.185656 0.964351 -0.188573
vn -0.324930 0.494375 -0.806234
vn -0.795533 0.501619 -0.339861
vn -0.795533 0.501619 -0.339861
vn 0.189573 0.963566 0.188685
vn 0.333528 0.498464 0.800183
vn 0.801921 0.497960 0.330089
vn -0.335301 -0.495788 -0.801104
vn -0.190617 -0.964238 -0.184147
vn -0.801429 -0.498859 -0.329926
vn 0.000000 -1.000000 0.000000
vn 0.195735 -0.960942 0.195651
vn 0.334991 -0.482276 0.809439
vn 0.807880 -0.484418 0.335663
vn 0.887915 0.325277 -0.325271
vn 0.325240 0.325288 -0.887923
vn 0.325242 0.887923 -0.325285
vn 0.926007 0.326071 0.190235
vn 0.398303 0.807707 0.434700
vn 0.379832 0.339821 0.860378
vn 0.849813 0.193596 0.490243
vn 0.325269 -0.887912 -0.325288
vn 0.325298 -0.325257 -0.887913
vn 0.887911 -0.325270 -0.325290
vn 0.382681 -0.923881 0.000000
vn 0.923883 -0.382676 0.000000
vn 0.325161 -0.325056 0.888037
vn 0.325432 -0.887936 0.325060
vn 0.887930 -0.325389 0.325118
s 1
g OutsideCorner_HP
usemtl initialShadingGroup
f 2/1/1 1/65/2 69/127/3 68/47/4
s 2
f 1/65/5 6/49/6 70/13/7 69/127/8
s 3
f 4/2/9 3/66/10 13/75/11 12/41/12
s 1
f 3/67/13 2/1/1 14/3/14 13/74/15
s 2
f 6/49/6 5/68/16 23/84/17 22/50/18
s 3
f 5/69/19 4/2/9 24/8/20 23/83/21
s 1
f 8/4/22 7/70/23 77/133/24 76/48/25
f 7/70/23 14/3/14 78/22/26 77/133/24
s 3
f 10/5/27 9/71/28 19/80/29 18/42/30
s 1
f 9/72/31 8/4/22 20/6/32 19/79/33
s 3
f 12/41/12 11/73/34 31/91/35 30/9/36
f 11/73/34 10/5/27 32/10/37 31/91/35
s 6
f 16/7/38 15/76/39 85/139/40 84/20/41
s 1
f 15/76/42 20/6/32 86/25/43 85/139/44
s 3
f 18/42/30 17/77/45 39/99/46 38/11/47
s 6
f 17/78/48 16/7/38 40/12/49 39/98/50
s 2
f 22/50/18 21/81/51 45/105/52 44/51/53
s 6
f 21/82/54 26/43/55 46/15/56 45/104/57
f 26/43/55 25/85/58 29/90/59 28/44/60
s 3
f 25/86/61 24/8/20 30/9/36 29/89/62
s 6
f 28/44/60 27/87/63 53/113/64 52/16/65
f 27/88/63 34/45/66 54/17/67 53/112/64
f 34/45/66 33/92/68 37/97/69 36/46/70
s 3
f 33/93/71 32/10/37 38/11/47 37/96/72
s 6
f 36/46/70 35/94/73 61/121/74 60/18/75
f 35/95/73 40/12/49 62/19/76 61/120/74
s 8
f 42/14/77 41/100/78 91/145/79 90/64/80
s 6
f 41/101/81 48/52/82 92/29/83 91/144/84
s 2
f 44/51/53 43/102/85 71/129/86 70/13/7
s 8
f 43/103/87 42/14/77 72/21/88 71/128/89
s 6
f 48/52/82 47/106/90 51/111/91 50/53/92
f 47/107/90 46/15/56 52/16/65 51/110/91
f 50/53/92 49/108/93 99/152/94 98/30/95
f 49/109/93 56/54/96 100/31/97 99/151/94
f 56/54/96 55/114/98 59/119/99 58/55/100
f 55/115/98 54/17/67 60/18/75 59/118/99
f 58/55/100 57/116/101 107/160/102 106/32/103
f 57/117/101 64/63/104 108/33/105 107/159/102
f 64/63/104 63/122/106 83/138/107 82/62/108
f 63/123/109 62/19/76 84/20/41 83/137/110
s 1
f 66/23/111 65/124/112 109/161/113 114/60/114
s 8
f 65/124/115 72/21/88 110/28/116 109/161/117
s 1
f 68/47/4 67/125/118 79/135/119 78/22/26
f 67/126/118 66/23/111 80/24/120 79/134/119
f 74/26/121 73/130/122 115/166/123 122/61/124
f 73/130/122 80/24/120 116/35/125 115/166/123
f 76/48/25 75/131/126 87/141/127 86/25/43
f 75/132/126 74/26/121 88/27/128 87/140/127
s 6
f 82/62/108 81/136/129 123/172/130 128/34/131
s 1
f 81/136/132 88/27/128 124/38/133 123/172/134
s 8
f 90/64/80 89/142/135 111/163/136 110/28/116
s 12
f 89/143/137 94/56/138 112/36/139 111/162/140
f 94/56/138 93/146/141 97/150/142 96/57/143
s 6
f 93/147/144 92/29/83 98/30/95 97/149/145
s 12
f 96/57/143 95/148/146 119/169/147 118/37/148
f 95/148/146 102/58/149 120/39/150 119/169/147
f 102/58/149 101/153/151 105/158/152 104/59/153
s 6
f 101/154/154 100/31/97 106/32/103 105/157/155
s 12
f 104/59/153 103/155/156 127/176/157 126/40/158
s 6
f 103/156/159 108/33/105 128/34/131 127/175/160
s 1
f 114/60/114 113/164/161 117/168/162 116/35/125
s 12
f 113/165/163 112/36/139 118/37/148 117/167/164
s 1
f 122/61/124 121/170/165 125/174/166 124/38/133
s 12
f 121/171/167 120/39/150 126/40/158 125/173/168
s 3
f 4/2/9 12/41/12 30/9/36 24/8/20
f 10/5/27 18/42/30 38/11/47 32/10/37
s 6
f 26/43/55 28/44/60 52/16/65 46/15/56
f 34/45/66 36/46/70 60/18/75 54/17/67
s 1
f 68/47/4 78/22/26 14/3/14 2/1/1
f 76/48/25 86/25/43 20/6/32 8/4/22
s 6
f 16/7/38 84/20/41 62/19/76 40/12/49
s 2
f 70/13/7 6/49/6 22/50/18 44/51/53
s 6
f 48/52/82 50/53/92 98/30/95 92/29/83
f 56/54/96 58/55/100 106/32/103 100/31/97
s 12
f 94/56/138 96/57/143 118/37/148 112/36/139
f 102/58/149 104/59/153 126/40/158 120/39/150
s 1
f 114/60/114 116/35/125 80/24/120 66/23/111
f 122/61/124 124/38/133 88/27/128 74/26/121
s 6
f 82/62/108 128/34/131 108/33/105 64/63/104
s 8
f 110/28/116 72/21/88 42/14/77 90/64/80
s 2
f 5/68/16 6/49/6 1/65/5 129/177/169
s 1
f 1/65/2 2/1/1 3/67/13 129/177/170
s 3
f 3/66/10 4/2/9 5/69/19 129/178/171
s 1
f 13/74/15 14/3/14 7/70/23 130/180/172
f 7/70/23 8/4/22 9/72/31 130/180/172
s 3
f 9/71/28 10/5/27 11/73/34 130/179/173
f 11/73/34 12/41/12 13/75/11 130/179/173
s 1
f 19/79/33 20/6/32 15/76/42 131/181/174
s 6
f 15/76/39 16/7/38 17/78/48 131/181/175
s 3
f 17/77/45 18/42/30 19/80/29 131/182/176
s 6
f 25/85/58 26/43/55 21/82/54 132/185/177
s 2
f 21/81/51 22/50/18 23/84/17 132/183/178
s 3
f 23/83/21 24/8/20 25/86/61 132/184/179
s 6
f 33/92/68 34/45/66 27/88/63 133/187/180
f 27/87/63 28/44/60 29/90/59 133/188/180
s 3
f 29/89/62 30/9/36 31/91/35 133/186/181
f 31/91/35 32/10/37 33/93/71 133/186/181
s 6
f 39/98/50 40/12/49 35/95/73 134/191/182
f 35/94/73 36/46/70 37/97/69 134/189/182
s 3
f 37/96/72 38/11/47 39/99/46 134/190/183
s 6
f 47/106/90 48/52/82 41/101/81 135/194/184
s 8
f 41/100/78 42/14/77 43/103/87 135/195/185
s 2
f 43/102/186 44/51/53 45/105/52 135/192/187
s 6
f 45/104/57 46/15/56 47/107/90 135/193/184
f 55/114/98 56/54/96 49/109/93 136/198/188
f 49/108/93 50/53/92 51/111/91 136/199/188
f 51/110/91 52/16/65 53/113/64 136/196/188
f 53/112/64 54/17/67 55/115/98 136/197/188
f 63/122/106 64/63/104 57/117/101 137/202/189
f 57/116/101 58/55/100 59/119/99 137/203/189
f 59/118/99 60/18/75 61/121/74 137/200/190
f 61/120/74 62/19/76 63/123/109 137/201/190
s 8
f 71/128/89 72/21/88 65/124/115 138/205/191
s 1
f 65/124/112 66/23/111 67/126/118 138/205/192
f 67/125/118 68/47/4 69/127/3 138/204/192
s 2
f 69/127/8 70/13/7 71/129/86 138/204/193
s 1
f 79/134/119 80/24/120 73/130/122 139/207/194
f 73/130/122 74/26/121 75/132/126 139/207/194
f 75/131/126 76/48/25 77/133/24 139/206/194
f 77/133/24 78/22/26 79/135/119 139/206/194
f 87/140/127 88/27/128 81/136/132 140/209/195
s 6
f 81/136/129 82/62/108 83/138/107 140/209/196
f 83/137/110 84/20/41 85/139/40 140/208/197
s 1
f 85/139/44 86/25/43 87/141/127 140/208/195
s 12
f 93/146/141 94/56/138 89/143/137 141/212/198
s 8
f 89/142/135 90/64/80 91/145/79 141/210/199
s 6
f 91/144/84 92/29/83 93/147/144 141/211/200
s 12
f 101/153/151 102/58/149 95/148/146 142/215/201
f 95/148/146 96/57/143 97/150/142 142/215/201
s 6
f 97/149/145 98/30/95 99/152/94 142/213/202
f 99/151/94 100/31/97 101/154/154 142/214/202
f 107/159/102 108/33/105 103/156/159 143/218/203
s 12
f 103/155/156 104/59/153 105/158/152 143/216/204
s 6
f 105/157/155 106/32/103 107/160/102 143/217/203
s 1
f 113/164/161 114/60/114 109/161/113 144/219/205
s 8
f 109/161/117 110/28/116 111/163/136 144/219/206
s 12
f 111/162/140 112/36/139 113/165/163 144/220/207
s 1
f 121/170/165 122/61/124 115/166/123 145/222/208
f 115/166/123 116/35/125 117/168/162 145/222/208
s 12
f 117/167/164 118/37/148 119/169/147 145/221/209
f 119/169/147 120/39/150 121/171/167 145/221/209
s 6
f 127/175/160 128/34/131 123/172/130 146/223/210
s 1
f 123/172/134 124/38/133 125/174/166 146/223/211
s 12
f 125/173/168 126/40/158 127/176/157 146/224/212
