# This file uses centimeters as units for non-parametric coordinates.

mtllib Outside_Bend_LP.mtl
g default
v 0.161016 0.000000 -2.937276
v 0.485991 0.000000 -2.560299
v 0.816562 0.000000 -2.189015
v 0.165340 1.000000 -2.935970
v 0.491026 1.000000 -2.558870
v 0.816562 0.465869 -2.182055
v 3.000000 1.000000 -4.001549
v 3.000000 1.000000 -3.525954
v 3.000000 0.465869 -3.000000
v 3.000000 0.000000 -3.998451
v 3.000000 0.000000 -3.522695
v 3.000000 0.000000 -3.010634
v -1.000000 0.000000 0.000000
v -0.500000 0.000000 -0.000551
v 0.000000 0.000000 -0.001547
v -1.000000 1.000000 0.000000
v -0.500000 1.000000 -0.000382
v 0.000000 0.465869 -0.000674
v -0.684020 1.000000 -1.632880
v -0.685347 0.000000 -1.633344
v -0.240473 0.000000 -1.425455
v 0.201438 0.000000 -1.216491
v 0.201438 0.465869 -1.212753
v -0.238381 1.000000 -1.424828
v 1.426433 1.000000 -3.770486
v 1.426433 0.000000 -3.767768
v 1.602266 0.000000 -3.276978
v 1.779683 0.000000 -2.804042
v 1.779683 0.465869 -2.794474
v 1.603373 1.000000 -3.279148
v 2.179364 0.000000 -3.979177
v 2.179364 1.000000 -3.982172
v 2.272179 1.000000 -3.464494
v 2.365534 0.465869 -2.948919
v 2.365534 0.000000 -2.959269
v 2.272179 0.000000 -3.461333
v 0.750989 1.000000 -3.417123
v 0.750989 0.000000 -3.414821
v 1.000613 0.000000 -2.975989
v 1.259235 0.000000 -2.545758
v 1.259235 0.465869 -2.537358
v 1.007095 1.000000 -2.974136
v -0.321867 0.000000 -2.338755
v -0.319109 1.000000 -2.337923
v 0.072571 1.000000 -2.038109
v 0.461236 0.465869 -1.736659
v 0.461236 0.000000 -1.742023
v 0.069050 0.000000 -2.039100
v -0.916998 1.000000 -0.841938
v -0.916998 0.000000 -0.842317
v -0.433074 0.000000 -0.737611
v 0.044591 0.000000 -0.628257
v 0.044591 0.465869 -0.626052
v -0.432220 1.000000 -0.737255
v -0.979199 1.000000 -0.423406
v -0.979199 0.000000 -0.423406
v -0.482759 0.000000 -0.373389
v 0.006831 0.000000 -0.316937
v 0.006831 0.465869 -0.315429
v -0.482430 1.000000 -0.373141
v -0.818502 0.000000 -1.246812
v -0.817802 1.000000 -1.246097
v -0.350519 1.000000 -1.089065
v 0.109714 0.465869 -0.926080
v 0.109714 0.000000 -0.929032
v -0.351964 0.000000 -1.089415
v -0.517274 1.000000 -1.997651
v -0.519291 0.000000 -1.998284
v -0.099740 0.000000 -1.742836
v 0.318915 0.000000 -1.488194
v 0.318915 0.465869 -1.483647
v -0.096952 1.000000 -1.741942
v -0.094600 0.000000 -2.652399
v -0.091067 1.000000 -2.651340
v 0.268798 1.000000 -2.310982
v 0.627448 0.465869 -1.969980
v 0.627448 0.000000 -1.976154
v 0.264695 0.000000 -2.312171
v 0.447657 1.000000 -3.190896
v 0.443520 0.000000 -3.191766
v 0.731719 0.000000 -2.781991
v 1.027532 0.000000 -2.379261
v 1.027532 0.465869 -2.371554
v 0.737496 1.000000 -2.780342
v 1.077641 0.000000 -3.608221
v 1.077641 1.000000 -3.610745
v 1.296344 1.000000 -3.140619
v 1.510425 0.465869 -2.678559
v 1.510425 0.000000 -2.687584
v 1.291307 0.000000 -3.141251
v 1.794135 1.000000 -3.896539
v 1.794135 0.000000 -3.893663
v 1.929231 0.000000 -3.384227
v 2.065361 0.000000 -2.894674
v 2.065361 0.465869 -2.884660
v 1.929231 1.000000 -3.387274
v 2.582231 0.000000 -3.998465
v 2.582231 1.000000 -4.001536
v 2.630016 1.000000 -3.510657
v 2.677948 0.465869 -2.987287
v 2.677948 0.000000 -2.997849
v 2.630016 0.000000 -3.507424
vt 0.502562 0.704788
vt 0.502485 0.646048
vt 0.502792 0.881008
vt 0.502716 0.822268
vt 0.502408 0.587309
vt 0.502337 0.532578
vt 0.822143 0.977823
vt 0.949965 0.978153
vt 0.149898 0.533040
vt 0.150046 0.646509
vt 0.150123 0.705249
vt 0.149969 0.587770
vt 0.694673 0.840944
vt 0.694982 0.721847
vt 0.150277 0.822729
vt 0.950626 0.722508
vt 0.822804 0.722178
vt 0.150353 0.881469
vt 0.150466 0.967422
vt 0.502905 0.966961
vt 0.723348 0.066468
vt 0.830245 0.066490
vt 0.830201 0.280285
vt 0.723304 0.280263
vt 0.937142 0.066512
vt 0.937122 0.166112
vt 0.502716 0.322268
vt 0.502792 0.381008
vt 0.150353 0.381469
vt 0.150277 0.322729
vt 0.502905 0.466961
vt 0.150466 0.467422
vt 0.150123 0.205249
vt 0.150046 0.146509
vt 0.502485 0.146048
vt 0.502562 0.204788
vt 0.149969 0.087770
vt 0.502408 0.087309
vt 0.149898 0.033040
vt 0.502337 0.032578
vt 0.326496 0.322498
vt 0.326342 0.205019
vt 0.326266 0.146279
vt 0.326189 0.087539
vt 0.326685 0.467191
vt 0.326117 0.032809
vt 0.326573 0.381238
vt 0.326496 0.822498
vt 0.326342 0.705019
vt 0.326266 0.646279
vt 0.326189 0.587539
vt 0.326685 0.967191
vt 0.326117 0.532809
vt 0.326573 0.881238
vt 0.238233 0.705134
vt 0.238386 0.822614
vt 0.238463 0.881353
vt 0.238576 0.967306
vt 0.238007 0.532924
vt 0.238079 0.587654
vt 0.238156 0.646394
vt 0.414606 0.822383
vt 0.414452 0.704903
vt 0.414375 0.646164
vt 0.414299 0.587424
vt 0.414795 0.967076
vt 0.414227 0.532694
vt 0.414683 0.881123
vt 0.238233 0.205134
vt 0.238386 0.322614
vt 0.238463 0.381353
vt 0.238576 0.467306
vt 0.238007 0.032924
vt 0.238079 0.087654
vt 0.238156 0.146394
vt 0.414606 0.322383
vt 0.414452 0.204903
vt 0.414375 0.146164
vt 0.414299 0.087424
vt 0.414795 0.467076
vt 0.414227 0.032694
vt 0.414683 0.381123
vt 0.458661 0.322325
vt 0.458507 0.204846
vt 0.458430 0.146106
vt 0.458353 0.087366
vt 0.458850 0.467018
vt 0.458282 0.032636
vt 0.458737 0.381065
vt 0.370397 0.204961
vt 0.370551 0.322441
vt 0.370628 0.381181
vt 0.370740 0.467133
vt 0.370172 0.032751
vt 0.370244 0.087481
vt 0.370320 0.146221
vt 0.282441 0.322556
vt 0.282287 0.205076
vt 0.282211 0.146337
vt 0.282134 0.087597
vt 0.282630 0.467249
vt 0.282062 0.032867
vt 0.282518 0.381296
vt 0.194178 0.205192
vt 0.194331 0.322671
vt 0.194408 0.381411
vt 0.194521 0.467364
vt 0.193953 0.032982
vt 0.194024 0.087712
vt 0.194101 0.146452
vt 0.458661 0.822325
vt 0.458507 0.704846
vt 0.458430 0.646106
vt 0.458353 0.587366
vt 0.458850 0.967018
vt 0.458282 0.532636
vt 0.458737 0.881065
vt 0.370397 0.704961
vt 0.370551 0.822441
vt 0.370628 0.881181
vt 0.370740 0.967133
vt 0.370172 0.532751
vt 0.370244 0.587481
vt 0.370320 0.646221
vt 0.282441 0.822556
vt 0.282287 0.705076
vt 0.282211 0.646336
vt 0.282134 0.587597
vt 0.282630 0.967249
vt 0.282062 0.532867
vt 0.282518 0.881296
vt 0.194178 0.705192
vt 0.194331 0.822671
vt 0.194408 0.881411
vt 0.194521 0.967364
vt 0.193953 0.532982
vt 0.194024 0.587712
vt 0.194101 0.646452
vn 0.000000 1.000000 0.000000
vn 0.300067 0.893535 0.333998
vn 0.270050 0.901938 0.337019
vn 0.000000 1.000000 0.000000
vn 0.488859 0.681859 0.544137
vn 0.457953 0.683710 0.568172
vn 1.000000 0.000000 0.000000
vn 1.000000 0.000000 0.000000
vn 1.000000 0.000000 0.000000
vn 1.000000 0.000000 0.000000
vn 1.000000 0.000000 0.000000
vn 1.000000 0.000000 0.000000
vn 0.000000 -1.000000 0.000000
vn 0.000000 -1.000000 0.000000
vn 0.000000 -1.000000 0.000000
vn 0.000000 -1.000000 0.000000
vn 0.000000 -1.000000 0.000000
vn 0.000000 -1.000000 0.000000
vn 0.668917 -0.011700 0.743245
vn 0.626378 -0.012904 0.779413
vn 0.626947 -0.012888 0.778955
vn 0.668917 -0.011700 0.743245
vn -0.631917 0.002147 -0.775033
vn -0.632048 0.002152 -0.774927
vn -0.669742 0.003641 -0.742585
vn -0.669742 0.003641 -0.742585
vn 0.000933 -0.000084 1.000000
vn 0.000922 -0.000349 1.000000
vn 0.000926 -0.000247 1.000000
vn 0.000933 -0.000084 1.000000
vn 0.000908 -0.000711 0.999999
vn 0.000908 -0.000711 0.999999
vn 0.000000 1.000000 0.000000
vn 0.435326 0.900140 0.015450
vn 0.435334 0.899544 0.036141
vn 0.000000 1.000000 0.000000
vn 0.732771 0.679978 0.026007
vn 0.732242 0.678421 0.059727
vn 0.000000 -1.000000 0.000000
vn 0.000000 -1.000000 0.000000
vn 0.000000 -1.000000 0.000000
vn 0.000000 -1.000000 0.000000
vn 0.000000 -1.000000 0.000000
vn 0.000000 -1.000000 0.000000
vn 0.999765 -0.000055 0.021675
vn 0.997466 -0.000268 0.071149
vn 0.997480 -0.000267 0.070945
vn 0.999765 -0.000055 0.021675
vn -0.995178 0.000014 -0.098087
vn -0.995178 0.000014 -0.098087
vn -0.998795 0.000000 -0.049068
vn -0.998795 0.000000 -0.049068
vn -0.743635 0.003712 -0.668576
vn -0.777688 0.003409 -0.628641
vn -0.777630 0.003409 -0.628713
vn -0.743635 0.003712 -0.668576
vn 0.000000 -1.000000 0.000000
vn 0.000000 -1.000000 0.000000
vn 0.000000 -1.000000 0.000000
vn 0.000000 -1.000000 0.000000
vn 0.000000 -1.000000 0.000000
vn 0.000000 -1.000000 0.000000
vn 0.782458 -0.008275 0.622649
vn 0.782009 -0.008289 0.623212
vn 0.746935 -0.009372 0.664831
vn 0.746935 -0.009372 0.664831
vn 0.340125 0.899725 0.273514
vn 0.574371 0.678384 0.458141
vn 0.547111 0.679175 0.489276
vn 0.313724 0.907118 0.280561
vn 0.000000 1.000000 0.000000
vn 0.000000 1.000000 0.000000
vn 0.000000 -0.003085 -0.999995
vn -0.023544 -0.003059 -0.999718
vn -0.023542 -0.003059 -0.999718
vn 0.000000 -0.003085 -0.999995
vn 0.000000 -1.000000 0.000000
vn 0.000000 -1.000000 0.000000
vn 0.000000 -1.000000 0.000000
vn 0.000000 -1.000000 0.000000
vn 0.000000 -1.000000 0.000000
vn 0.000000 -1.000000 0.000000
vn 0.080500 -0.022519 0.996500
vn 0.080404 -0.022519 0.996508
vn 0.039546 -0.022724 0.998959
vn 0.039546 -0.022724 0.998959
vn 0.035625 0.901855 0.430568
vn 0.058567 0.701119 0.710635
vn 0.028836 0.701121 0.712459
vn 0.017659 0.899627 0.436303
vn 0.000000 1.000000 0.000000
vn 0.000000 1.000000 0.000000
vn -0.270464 -0.002761 -0.962726
vn -0.270517 -0.002761 -0.962711
vn -0.370324 -0.002518 -0.928899
vn -0.370265 -0.002518 -0.928923
vn 0.000000 1.000000 0.000000
vn 0.150301 0.906321 0.394958
vn 0.110059 0.906946 0.406616
vn 0.000000 1.000000 0.000000
vn 0.256384 0.694454 0.672310
vn 0.187134 0.697876 0.691339
vn 0.349044 -0.019206 0.936909
vn 0.348613 -0.019214 0.937070
vn 0.255302 -0.020733 0.966639
vn 0.255624 -0.020729 0.966554
vn 0.000000 -1.000000 0.000000
vn 0.000000 -1.000000 0.000000
vn 0.000000 -1.000000 0.000000
vn 0.000000 -1.000000 0.000000
vn 0.000000 -1.000000 0.000000
vn 0.000000 -1.000000 0.000000
vn -0.463373 -0.002234 -0.886161
vn -0.463303 -0.002234 -0.886197
vn 0.000000 -1.000000 0.000000
vn 0.000000 -1.000000 0.000000
vn 0.000000 -1.000000 0.000000
vn 0.443926 -0.017333 0.895896
vn 0.443408 -0.017344 0.896152
vn 0.191232 0.904687 0.380751
vn 0.325693 0.690248 0.646129
vn 0.000000 1.000000 0.000000
vn -0.888507 0.002090 -0.458859
vn -0.888517 0.002090 -0.458838
vn -0.928790 0.001448 -0.370604
vn -0.928788 0.001448 -0.370608
vn 0.000000 1.000000 -0.000000
vn 0.410873 0.897919 0.157878
vn 0.392596 0.898148 0.197988
vn 0.000000 1.000000 0.000000
vn 0.690870 0.673579 0.262661
vn 0.660646 0.674325 0.329898
vn 0.936511 -0.002853 0.350627
vn 0.936344 -0.002859 0.351072
vn 0.896035 -0.004374 0.443962
vn 0.896289 -0.004365 0.443448
vn 0.000000 -1.000000 0.000000
vn 0.000000 -1.000000 0.000000
vn 0.000000 -1.000000 0.000000
vn 0.000000 -1.000000 0.000000
vn 0.000000 -1.000000 0.000000
vn 0.000000 -1.000000 0.000000
vn -0.959469 0.000808 -0.281813
vn -0.959477 0.000808 -0.281786
vn 0.000000 -1.000000 0.000000
vn 0.000000 -1.000000 0.000000
vn 0.000000 -1.000000 0.000000
vn 0.966204 -0.001674 0.257773
vn 0.966108 -0.001678 0.258133
vn 0.423910 0.898079 0.117280
vn 0.712649 0.673897 0.194921
vn 0.000000 1.000000 0.000000
vn -0.981391 0.000247 -0.192019
vn -0.981387 0.000247 -0.192041
vn 0.000000 -1.000000 0.000000
vn 0.000000 -1.000000 0.000000
vn 0.000000 -1.000000 0.000000
vn 0.986111 -0.000825 0.166085
vn 0.986157 -0.000823 0.165813
vn 0.726370 0.675343 0.127666
vn 0.431908 0.898637 0.076862
vn 0.000000 1.000000 0.000000
vn -0.838184 0.002767 -0.545380
vn -0.838213 0.002767 -0.545336
vn 0.000000 -1.000000 0.000000
vn 0.000000 -1.000000 0.000000
vn 0.000000 -1.000000 0.000000
vn 0.844621 -0.006201 0.535328
vn 0.844974 -0.006189 0.534772
vn 0.621786 0.676021 0.395446
vn 0.368956 0.898779 0.236788
vn 0.000000 1.000000 0.000000
vn -0.551725 -0.000717 -0.834026
vn -0.551792 -0.000715 -0.833982
vn 0.000000 -1.000000 0.000000
vn 0.000000 -1.000000 0.000000
vn 0.000000 -1.000000 0.000000
vn 0.536987 -0.015205 0.843453
vn 0.537554 -0.015191 0.843092
vn 0.392753 0.686568 0.611857
vn 0.231181 0.903125 0.361830
vn 0.000000 1.000000 0.000000
vn -0.131918 -0.002959 -0.991256
vn -0.131961 -0.002959 -0.991251
vn 0.000000 -1.000000 0.000000
vn 0.000000 -1.000000 0.000000
vn 0.000000 -1.000000 0.000000
vn 0.165514 -0.021846 0.985965
vn 0.165720 -0.021844 0.985931
vn 0.120930 0.700037 0.703792
vn 0.072013 0.905471 0.418254
vn 0.000000 1.000000 0.000000
s 1
g OutsideBend
usemtl initialShadingGroup
f 4/4/1 5/3/2 84/117/3 79/111/4
f 5/3/2 6/20/5 83/115/6 84/117/3
s 2
f 7/8/7 8/7/8 11/17/9 10/16/10
f 8/7/8 9/13/11 12/14/12 11/17/9
s 3
f 80/112/13 81/113/14 2/2/15 1/1/16
f 81/113/14 82/114/17 3/5/18 2/2/15
s 4
f 3/5/19 82/114/20 83/116/21 6/6/22
s 5
f 79/111/23 80/112/24 1/1/25 4/4/26
s 6
f 13/21/27 14/22/28 17/23/29 16/24/30
f 14/22/28 15/25/31 18/26/32 17/23/29
s 7
f 16/27/33 17/28/34 60/89/35 55/83/36
f 17/28/34 18/31/37 59/87/38 60/89/35
s 8
f 56/84/39 57/85/40 14/35/41 13/36/42
f 57/85/40 58/86/43 15/38/44 14/35/41
s 9
f 15/38/45 58/86/46 59/88/47 18/40/48
s 10
f 55/83/49 56/84/50 13/36/51 16/27/52
f 1/33/53 73/104/54 74/105/55 4/30/56
s 8
f 1/33/57 2/34/58 78/110/59 73/104/60
f 2/34/58 3/37/61 77/109/62 78/110/59
s 9
f 76/108/63 77/109/64 3/37/65 6/39/66
s 7
f 75/106/67 76/107/68 6/32/69 5/29/70
f 74/105/71 75/106/67 5/29/70 4/30/72
s 5
f 10/11/73 97/132/74 98/133/75 7/15/76
s 3
f 10/11/77 11/10/78 102/138/79 97/132/80
f 11/10/78 12/12/81 101/137/82 102/138/79
s 4
f 100/136/83 101/137/84 12/12/85 9/9/86
s 1
f 99/134/87 100/135/88 9/19/89 8/18/90
f 98/133/91 99/134/87 8/18/90 7/15/92
s 5
f 91/125/93 92/126/94 26/49/95 25/48/96
s 1
f 25/48/97 30/54/98 96/131/99 91/125/100
f 30/54/98 29/52/101 95/129/102 96/131/99
s 4
f 29/53/103 28/51/104 94/128/105 95/130/106
s 3
f 93/127/107 94/128/108 28/51/109 27/50/110
f 92/126/111 93/127/107 27/50/110 26/49/112
s 5
f 25/48/96 26/49/95 85/118/113 86/119/114
s 3
f 26/49/112 27/50/110 90/124/115 85/118/116
f 27/50/110 28/51/109 89/123/117 90/124/115
s 4
f 88/122/118 89/123/119 28/51/104 29/53/103
s 1
f 87/120/120 88/121/121 29/52/101 30/54/98
f 86/119/122 87/120/120 30/54/98 25/48/97
s 10
f 67/97/123 68/98/124 20/42/125 19/41/126
s 7
f 19/41/127 24/47/128 72/103/129 67/97/130
f 24/47/128 23/45/131 71/101/132 72/103/129
s 9
f 23/46/133 22/44/134 70/100/135 71/102/136
s 8
f 69/99/137 70/100/138 22/44/139 21/43/140
f 68/98/141 69/99/137 21/43/140 20/42/142
s 10
f 19/41/126 20/42/125 61/90/143 62/91/144
s 8
f 20/42/142 21/43/140 66/96/145 61/90/146
f 21/43/140 22/44/139 65/95/147 66/96/145
s 9
f 64/94/148 65/95/149 22/44/134 23/46/133
s 7
f 63/92/150 64/93/151 23/45/131 24/47/128
f 62/91/152 63/92/150 24/47/128 19/41/127
s 10
f 49/76/153 50/77/154 56/84/50 55/83/49
s 8
f 50/77/155 51/78/156 57/85/40 56/84/39
f 51/78/156 52/79/157 58/86/43 57/85/40
s 9
f 59/88/47 58/86/46 52/79/158 53/81/159
s 7
f 60/89/35 59/87/38 53/80/160 54/82/161
f 55/83/36 60/89/35 54/82/161 49/76/162
s 10
f 62/91/144 61/90/143 50/77/154 49/76/153
s 7
f 49/76/162 54/82/161 63/92/150 62/91/152
f 54/82/161 53/80/160 64/93/151 63/92/150
s 9
f 53/81/159 52/79/158 65/95/149 64/94/148
s 8
f 66/96/145 65/95/147 52/79/157 51/78/156
f 61/90/146 66/96/145 51/78/156 50/77/155
s 10
f 44/70/163 43/69/164 68/98/124 67/97/123
s 8
f 43/69/165 48/75/166 69/99/137 68/98/141
f 48/75/166 47/74/167 70/100/138 69/99/137
s 9
f 71/102/136 70/100/135 47/74/168 46/73/169
s 7
f 72/103/129 71/101/132 46/72/170 45/71/171
f 67/97/130 72/103/129 45/71/171 44/70/172
s 10
f 74/105/55 73/104/54 43/69/164 44/70/163
s 7
f 44/70/172 45/71/171 75/106/67 74/105/71
f 45/71/171 46/72/170 76/107/68 75/106/67
s 9
f 46/73/169 47/74/168 77/109/64 76/108/63
s 8
f 78/110/59 77/109/62 47/74/167 48/75/166
f 73/104/60 78/110/59 48/75/166 43/69/165
s 5
f 37/62/173 38/63/174 80/112/24 79/111/23
s 3
f 38/63/175 39/64/176 81/113/14 80/112/13
f 39/64/176 40/65/177 82/114/17 81/113/14
s 4
f 83/116/21 82/114/20 40/65/178 41/67/179
s 1
f 84/117/3 83/115/6 41/66/180 42/68/181
f 79/111/4 84/117/3 42/68/181 37/62/182
s 5
f 86/119/114 85/118/113 38/63/174 37/62/173
s 1
f 37/62/182 42/68/181 87/120/120 86/119/122
f 42/68/181 41/66/180 88/121/121 87/120/120
s 4
f 41/67/179 40/65/178 89/123/119 88/122/118
s 3
f 90/124/115 89/123/117 40/65/177 39/64/176
f 85/118/116 90/124/115 39/64/176 38/63/175
s 5
f 32/56/183 31/55/184 92/126/94 91/125/93
s 3
f 31/55/185 36/61/186 93/127/107 92/126/111
f 36/61/186 35/60/187 94/128/108 93/127/107
s 4
f 95/130/106 94/128/105 35/60/188 34/59/189
s 1
f 96/131/99 95/129/102 34/58/190 33/57/191
f 91/125/100 96/131/99 33/57/191 32/56/192
s 5
f 98/133/75 97/132/74 31/55/184 32/56/183
s 1
f 32/56/192 33/57/191 99/134/87 98/133/91
f 33/57/191 34/58/190 100/135/88 99/134/87
s 4
f 34/59/189 35/60/188 101/137/84 100/136/83
s 3
f 102/138/79 101/137/82 35/60/187 36/61/186
f 97/132/80 102/138/79 36/61/186 31/55/185
