# This file uses centimeters as units for non-parametric coordinates.

mtllib Outside_Corner_LP.mtl
g default
v -1.000000 0.000000 0.000000
v -0.500000 0.000000 0.000000
v 0.000000 0.000000 0.000000
v -1.000000 1.000000 0.000000
v -0.500000 1.000000 0.000000
v 0.000000 0.465869 0.000000
v -1.000000 1.000000 -4.000000
v -0.502968 1.000000 -3.499684
v 0.000000 0.465869 -3.000000
v -1.000000 0.000000 -4.000000
v -0.500326 0.000000 -3.499684
v 0.000000 0.000000 -3.000000
v -1.000000 0.000000 -4.000000
v 0.000000 0.000000 -3.000000
v 0.000000 0.465869 -3.000000
v 3.000000 1.000000 -4.000000
v 3.000000 1.000000 -3.500000
v 3.000000 0.465869 -3.000000
v 3.000000 0.000000 -4.000000
v 3.000000 0.000000 -3.500000
v 3.000000 0.000000 -3.000000
vt 0.295844 0.037839
vt 0.225124 0.037839
vt 0.550976 0.864160
vt 0.437285 0.037839
vt 0.154403 0.037839
vt 0.088510 0.037839
vt 0.088510 0.462161
vt 0.225124 0.462161
vt 0.295844 0.462161
vt 0.154403 0.462161
vt 0.937132 0.043114
vt 0.937132 0.142736
vt 0.723326 0.043114
vt 0.723326 0.256897
vt 0.830223 0.256897
vt 0.830223 0.043114
vt 0.437285 0.462161
vt 0.656294 0.864160
vt 0.860101 0.314904
vt 0.978453 0.316977
vt 0.438390 0.485154
vt 0.549324 0.433947
vt 0.659156 0.399001
vt 0.438390 0.914846
vt 0.722410 0.691648
vt 0.831807 0.636707
vt 0.948849 0.949114
vt 0.849863 0.949114
vt 0.849863 0.751014
vt 0.948849 0.751014
vt 0.751014 0.842987
vt 0.751014 0.751014
vt 0.295159 0.914846
vt 0.223544 0.914846
vt 0.223544 0.485154
vt 0.295159 0.485154
vt 0.151928 0.914846
vt 0.151928 0.485154
vt 0.085202 0.914846
vt 0.085202 0.485154
vt 0.972773 0.641234
vt 0.853474 0.693169
vt 0.833308 0.308352
vt 0.724094 0.308242
vt 0.655669 0.549061
vt 0.550976 0.504014
vt 0.667301 0.109107
vt 0.558704 0.102925
vn 0.000000 0.000000 1.000000
vn 0.000000 0.000000 1.000000
vn 0.000000 0.000000 1.000000
vn 0.000000 0.000000 1.000000
vn 0.000000 0.000000 1.000000
vn 0.000000 0.000000 1.000000
vn 0.000000 1.000000 0.000000
vn 0.444653 0.895703 -0.000203
vn 0.270966 0.962589 -0.000124
vn 0.000000 1.000000 0.000000
vn 0.729113 0.684393 -0.000333
vn 0.729113 0.684393 -0.000333
vn 0.000000 -1.000000 0.000000
vn 0.000000 -1.000000 0.000000
vn 0.000000 -1.000000 0.000000
vn 0.000000 -1.000000 0.000000
vn 0.000000 -1.000000 0.000000
vn 0.000000 -1.000000 0.000000
vn 1.000000 0.000000 0.000000
vn 1.000000 0.000000 0.000000
vn 1.000000 0.000000 0.000000
vn 1.000000 0.000000 0.000000
vn -1.000000 0.000000 0.000000
vn -1.000000 0.000000 0.000000
vn -1.000000 0.000000 0.000000
vn -1.000000 0.000000 0.000000
vn 0.000000 1.000000 0.000000
vn 0.000013 0.962751 0.270389
vn 0.000022 0.895875 0.444307
vn 0.000000 1.000000 0.000000
vn 0.000035 0.683291 0.730147
vn 0.000035 0.683291 0.730147
vn 1.000000 0.000000 0.000000
vn 1.000000 0.000000 0.000000
vn 1.000000 0.000000 0.000000
vn 1.000000 0.000000 0.000000
vn 1.000000 0.000000 0.000000
vn 1.000000 0.000000 0.000000
vn 0.000000 -1.000000 0.000000
vn 0.000000 -1.000000 0.000000
vn 0.000000 -1.000000 0.000000
vn 0.000000 -1.000000 0.000000
vn 0.000000 -1.000000 0.000000
vn 0.000000 -1.000000 0.000000
vn 0.000000 0.000000 1.000000
vn 0.000000 0.000000 1.000000
vn 0.000000 0.000000 1.000000
vn 0.000000 0.000000 1.000000
vn 0.000000 0.000000 -1.000000
vn 0.000000 0.000000 -1.000000
vn 0.000000 0.000000 -1.000000
vn 0.000000 0.000000 -1.000000
s 1
g Outside_corner
usemtl initialShadingGroup
f 1/13/1 2/16/2 5/15/3 4/14/4
f 2/16/2 3/11/5 6/12/6 5/15/3
s 2
f 4/3/7 5/18/8 8/45/9 7/46/10
f 5/19/8 6/20/11 9/41/12 8/42/9
s 3
f 10/9/13 11/8/14 2/2/15 1/1/16
f 11/8/14 12/10/17 3/5/18 2/2/15
s off
f 3/5/19 12/10/20 9/7/21 6/6/22
f 10/9/23 1/1/24 4/4/25 7/17/26
s 4
f 7/22/27 8/23/28 17/47/29 16/48/30
f 8/25/28 15/26/31 18/43/32 17/44/29
s 5
f 16/27/33 17/28/34 20/29/35 19/30/36
f 17/28/34 18/31/37 21/32/38 20/29/35
s 6
f 19/33/39 20/34/40 11/35/41 13/36/42
f 20/34/40 21/37/43 14/38/44 11/35/41
s off
f 14/38/45 21/37/46 18/39/47 15/40/48
f 19/33/49 13/36/50 7/21/51 16/24/52
